<svg width="343" height="379" viewBox="0 0 343 379" fill="none" xmlns="http://www.w3.org/2000/svg">
<g clip-path="url(#clip0)">
<path d="M383.714 -491.137L389.236 -471.313C394.758 -451.489 405.802 -411.841 387.739 -384.896C369.949 -357.832 322.37 -343.767 293.673 -321.463C264.703 -299.277 253.934 -269.149 261.365 -231.078C268.524 -193.125 294.565 -146.933 276.297 -120.077C258.03 -93.2206 196.818 -85.1062 171.256 -61.4332C145.968 -37.6412 157.012 2.00672 142.63 30.5585C127.975 58.9912 88.5763 76.6252 92.1222 113.001C95.668 149.376 143.522 205.089 147.068 241.464C150.614 277.84 111.215 295.474 67.5211 311.234C24.2366 327.172 -23.3425 341.236 -33.9071 371.454C-44.8807 401.493 -18.8399 447.686 -8.00025 487.244C3.24841 526.981 -0.704063 560.085 -2.20313 576.845L-3.97487 593.485L-134.855 536.368L-129.47 521.304C-124.085 506.24 -113.316 476.111 -102.547 445.983C-91.7781 415.855 -81.009 385.726 -70.2398 355.598C-59.4707 325.469 -48.7016 295.341 -37.9325 265.213C-27.1633 235.084 -16.3942 204.956 -5.62509 174.827C5.14404 144.699 15.9132 114.571 26.6823 84.4422C37.4514 54.3138 48.2205 24.1854 58.9897 -5.943C69.7588 -36.0714 80.5279 -66.1998 91.297 -96.3282C102.066 -126.457 112.835 -156.585 123.604 -186.713C134.374 -216.842 145.143 -246.97 155.912 -277.099C166.681 -307.227 177.45 -337.355 188.219 -367.484C198.988 -397.612 209.757 -427.741 220.527 -457.869C231.296 -487.997 242.065 -518.126 247.449 -533.19L252.834 -548.254L383.714 -491.137Z" fill="#D9DD6B"/>
<rect x="-135" y="-59" width="205" height="296" fill="#D9DD6B"/>
</g>
<defs>
<clipPath id="clip0">
<rect width="343" height="379" fill="white"/>
</clipPath>
</defs>
</svg>
